<svg width="198" height="46" viewBox="0 0 198 46" fill="none" xmlns="http://www.w3.org/2000/svg">
<path d="M0.897727 35V8.81818H7.81818V13.4375H8.125C8.67045 11.9034 9.57955 10.6932 10.8523 9.80682C12.125 8.92045 13.6477 8.47727 15.4205 8.47727C17.2159 8.47727 18.7443 8.92614 20.0057 9.82386C21.267 10.7102 22.108 11.9148 22.5284 13.4375H22.8011C23.3352 11.9375 24.3011 10.7386 25.6989 9.84091C27.108 8.93182 28.7727 8.47727 30.6932 8.47727C33.1364 8.47727 35.1193 9.25568 36.642 10.8125C38.1761 12.358 38.9432 14.5511 38.9432 17.392V35H31.6989V18.8239C31.6989 17.3693 31.3125 16.2784 30.5398 15.5511C29.767 14.8239 28.8011 14.4602 27.642 14.4602C26.3239 14.4602 25.2955 14.8807 24.5568 15.7216C23.8182 16.5511 23.4489 17.6477 23.4489 19.0114V35H16.4091V18.6705C16.4091 17.3864 16.0398 16.3636 15.3011 15.6023C14.5739 14.8409 13.6136 14.4602 12.4205 14.4602C11.6136 14.4602 10.8864 14.6648 10.2386 15.0739C9.60227 15.4716 9.09659 16.0341 8.72159 16.7614C8.34659 17.4773 8.15909 18.3182 8.15909 19.2841V35H0.897727ZM52.1449 35.4943C50.4744 35.4943 48.9858 35.2045 47.679 34.625C46.3722 34.0341 45.3381 33.1648 44.5767 32.017C43.8267 30.858 43.4517 29.4148 43.4517 27.6875C43.4517 26.233 43.7188 25.0114 44.2528 24.0227C44.7869 23.0341 45.5142 22.2386 46.4347 21.6364C47.3551 21.0341 48.4006 20.5795 49.571 20.2727C50.7528 19.9659 51.9915 19.75 53.2869 19.625C54.8097 19.4659 56.0369 19.3182 56.9688 19.1818C57.9006 19.0341 58.5767 18.8182 58.9972 18.5341C59.4176 18.25 59.6278 17.8295 59.6278 17.2727V17.1705C59.6278 16.0909 59.2869 15.2557 58.6051 14.6648C57.9347 14.0739 56.9801 13.7784 55.7415 13.7784C54.4347 13.7784 53.3949 14.0682 52.6222 14.6477C51.8494 15.2159 51.3381 15.9318 51.0881 16.7955L44.3722 16.25C44.7131 14.6591 45.3835 13.2841 46.3835 12.125C47.3835 10.9545 48.6733 10.0568 50.2528 9.43182C51.8438 8.79545 53.6847 8.47727 55.7756 8.47727C57.2301 8.47727 58.6222 8.64773 59.9517 8.98864C61.2926 9.32955 62.4801 9.85795 63.5142 10.5739C64.5597 11.2898 65.3835 12.2102 65.9858 13.3352C66.5881 14.4489 66.8892 15.7841 66.8892 17.3409V35H60.0028V31.3693H59.7983C59.3778 32.1875 58.8153 32.9091 58.1108 33.5341C57.4062 34.1477 56.5597 34.6307 55.571 34.983C54.5824 35.3239 53.4403 35.4943 52.1449 35.4943ZM54.2244 30.483C55.2926 30.483 56.2358 30.2727 57.054 29.8523C57.8722 29.4205 58.5142 28.8409 58.9801 28.1136C59.446 27.3864 59.679 26.5625 59.679 25.642V22.8636C59.4517 23.0114 59.1392 23.1477 58.7415 23.2727C58.3551 23.3864 57.9176 23.4943 57.429 23.5966C56.9403 23.6875 56.4517 23.7727 55.9631 23.8523C55.4744 23.9205 55.0312 23.983 54.6335 24.0398C53.7813 24.1648 53.0369 24.3636 52.4006 24.6364C51.7642 24.9091 51.2699 25.2784 50.9176 25.7443C50.5653 26.1989 50.3892 26.767 50.3892 27.4489C50.3892 28.4375 50.7472 29.1932 51.4631 29.7159C52.1903 30.2273 53.1108 30.483 54.2244 30.483ZM79.7841 19.8636V35H72.5227V8.81818H79.4432V13.4375H79.75C80.3295 11.9148 81.3011 10.7102 82.6648 9.82386C84.0284 8.92614 85.6818 8.47727 87.625 8.47727C89.4432 8.47727 91.0284 8.875 92.3807 9.67045C93.733 10.4659 94.7841 11.6023 95.5341 13.0795C96.2841 14.5455 96.6591 16.2955 96.6591 18.3295V35H89.3977V19.625C89.4091 18.0227 89 16.7727 88.1705 15.875C87.3409 14.9659 86.1989 14.5114 84.7443 14.5114C83.767 14.5114 82.9034 14.7216 82.1534 15.142C81.4148 15.5625 80.8352 16.1761 80.4148 16.983C80.0057 17.7784 79.7955 18.7386 79.7841 19.8636ZM114.178 45.3636C111.825 45.3636 109.808 45.0398 108.126 44.392C106.456 43.7557 105.126 42.8864 104.138 41.7841C103.149 40.6818 102.507 39.4432 102.212 38.0682L108.928 37.1648C109.132 37.6875 109.456 38.1761 109.899 38.6307C110.342 39.0852 110.928 39.4489 111.655 39.7216C112.393 40.0057 113.291 40.1477 114.348 40.1477C115.928 40.1477 117.229 39.7614 118.251 38.9886C119.286 38.2273 119.803 36.9489 119.803 35.1534V30.3636H119.496C119.178 31.0909 118.7 31.7784 118.064 32.4261C117.428 33.0739 116.609 33.6023 115.609 34.0114C114.609 34.4205 113.416 34.625 112.03 34.625C110.064 34.625 108.274 34.1705 106.661 33.2614C105.058 32.3409 103.78 30.9375 102.825 29.0511C101.882 27.1534 101.411 24.7557 101.411 21.858C101.411 18.892 101.893 16.4148 102.859 14.4261C103.825 12.4375 105.109 10.9489 106.712 9.96023C108.325 8.97159 110.092 8.47727 112.013 8.47727C113.479 8.47727 114.706 8.72727 115.695 9.22727C116.683 9.71591 117.479 10.3295 118.081 11.0682C118.695 11.7955 119.166 12.5114 119.496 13.2159H119.768V8.81818H126.979V35.2557C126.979 37.483 126.433 39.3466 125.342 40.8466C124.251 42.3466 122.74 43.4716 120.808 44.2216C118.888 44.983 116.678 45.3636 114.178 45.3636ZM114.331 29.1705C115.501 29.1705 116.49 28.8807 117.297 28.3011C118.115 27.7102 118.74 26.8693 119.172 25.7784C119.615 24.6761 119.837 23.358 119.837 21.8239C119.837 20.2898 119.621 18.9602 119.189 17.8352C118.757 16.6989 118.132 15.8182 117.314 15.1932C116.496 14.5682 115.501 14.2557 114.331 14.2557C113.138 14.2557 112.132 14.5795 111.314 15.2273C110.496 15.8636 109.876 16.75 109.456 17.8864C109.036 19.0227 108.825 20.3352 108.825 21.8239C108.825 23.3352 109.036 24.642 109.456 25.7443C109.888 26.8352 110.507 27.6818 111.314 28.2841C112.132 28.875 113.138 29.1705 114.331 29.1705ZM144.587 35.5114C141.905 35.5114 139.598 34.9432 137.666 33.8068C135.746 32.6591 134.268 31.0682 133.234 29.0341C132.212 27 131.7 24.6591 131.7 22.0114C131.7 19.3295 132.217 16.9773 133.251 14.9545C134.297 12.9205 135.78 11.3352 137.7 10.1989C139.621 9.05114 141.905 8.47727 144.553 8.47727C146.837 8.47727 148.837 8.89205 150.553 9.72159C152.268 10.5511 153.626 11.7159 154.626 13.2159C155.626 14.7159 156.178 16.4773 156.28 18.5H149.428C149.234 17.1932 148.723 16.142 147.893 15.3466C147.075 14.5398 146.001 14.1364 144.672 14.1364C143.547 14.1364 142.564 14.4432 141.723 15.0568C140.893 15.6591 140.246 16.5398 139.78 17.6989C139.314 18.858 139.081 20.2614 139.081 21.9091C139.081 23.5795 139.308 25 139.763 26.1705C140.229 27.3409 140.882 28.233 141.723 28.8466C142.564 29.4602 143.547 29.767 144.672 29.767C145.501 29.767 146.246 29.5966 146.905 29.2557C147.575 28.9148 148.126 28.4205 148.558 27.7727C149.001 27.1136 149.291 26.3239 149.428 25.4034H156.28C156.166 27.4034 155.621 29.1648 154.643 30.6875C153.678 32.1989 152.342 33.3807 150.638 34.233C148.933 35.0852 146.916 35.5114 144.587 35.5114ZM168.19 0.0909081V35H160.929V0.0909081H168.19ZM185.939 35.5114C183.246 35.5114 180.928 34.9659 178.984 33.875C177.053 32.7727 175.564 31.2159 174.518 29.2045C173.473 27.1818 172.95 24.7898 172.95 22.0284C172.95 19.3352 173.473 16.9716 174.518 14.9375C175.564 12.9034 177.036 11.3182 178.933 10.1818C180.842 9.04545 183.081 8.47727 185.649 8.47727C187.376 8.47727 188.984 8.75568 190.473 9.3125C191.973 9.85795 193.28 10.6818 194.393 11.7841C195.518 12.8864 196.393 14.2727 197.018 15.9432C197.643 17.6023 197.956 19.5455 197.956 21.7727V23.767H175.848V19.267H191.121C191.121 18.2216 190.893 17.2955 190.439 16.4886C189.984 15.6818 189.354 15.0511 188.547 14.5966C187.751 14.1307 186.825 13.8977 185.768 13.8977C184.666 13.8977 183.689 14.1534 182.837 14.6648C181.996 15.1648 181.337 15.8409 180.859 16.6932C180.382 17.5341 180.138 18.4716 180.126 19.5057V23.7841C180.126 25.0795 180.365 26.1989 180.842 27.142C181.331 28.0852 182.018 28.8125 182.905 29.3239C183.791 29.8352 184.842 30.0909 186.058 30.0909C186.865 30.0909 187.604 29.9773 188.274 29.75C188.945 29.5227 189.518 29.1818 189.996 28.7273C190.473 28.2727 190.837 27.7159 191.087 27.0568L197.803 27.5C197.462 29.1136 196.763 30.5227 195.706 31.7273C194.661 32.9205 193.308 33.8523 191.649 34.5227C190.001 35.1818 188.098 35.5114 185.939 35.5114Z" fill="#63B3E8"/>
</svg>
